<svg width="24" height="24" viewBox="0 0 24 24" fill="none" xmlns="http://www.w3.org/2000/svg">
<path d="M20.25 4.125H3.75C3.45163 4.125 3.16548 4.24353 2.9545 4.4545C2.74353 4.66548 2.625 4.95163 2.625 5.25V18.75C2.625 19.0484 2.74353 19.3345 2.9545 19.5455C3.16548 19.7565 3.45163 19.875 3.75 19.875H20.25C20.5484 19.875 20.8345 19.7565 21.0455 19.5455C21.2565 19.3345 21.375 19.0484 21.375 18.75V5.25C21.375 4.95163 21.2565 4.66548 21.0455 4.4545C20.8345 4.24353 20.5484 4.125 20.25 4.125ZM20.625 18.75C20.625 18.8495 20.5855 18.9448 20.5152 19.0152C20.4448 19.0855 20.3495 19.125 20.25 19.125H3.75C3.65054 19.125 3.55516 19.0855 3.48484 19.0152C3.41451 18.9448 3.375 18.8495 3.375 18.75V5.25C3.375 5.15054 3.41451 5.05516 3.48484 4.98484C3.55516 4.91451 3.65054 4.875 3.75 4.875H20.25C20.3495 4.875 20.4448 4.91451 20.5152 4.98484C20.5855 5.05516 20.625 5.15054 20.625 5.25V18.75ZM16.875 9C16.875 9.09946 16.8355 9.19484 16.7652 9.26517C16.6948 9.33549 16.5995 9.375 16.5 9.375H7.5C7.40054 9.375 7.30516 9.33549 7.23483 9.26517C7.16451 9.19484 7.125 9.09946 7.125 9C7.125 8.90054 7.16451 8.80516 7.23483 8.73483C7.30516 8.66451 7.40054 8.625 7.5 8.625H16.5C16.5995 8.625 16.6948 8.66451 16.7652 8.73483C16.8355 8.80516 16.875 8.90054 16.875 9ZM16.875 12C16.875 12.0995 16.8355 12.1948 16.7652 12.2652C16.6948 12.3355 16.5995 12.375 16.5 12.375H7.5C7.40054 12.375 7.30516 12.3355 7.23483 12.2652C7.16451 12.1948 7.125 12.0995 7.125 12C7.125 11.9005 7.16451 11.8052 7.23483 11.7348C7.30516 11.6645 7.40054 11.625 7.5 11.625H16.5C16.5995 11.625 16.6948 11.6645 16.7652 11.7348C16.8355 11.8052 16.875 11.9005 16.875 12ZM16.875 15C16.875 15.0995 16.8355 15.1948 16.7652 15.2652C16.6948 15.3355 16.5995 15.375 16.5 15.375H7.5C7.40054 15.375 7.30516 15.3355 7.23483 15.2652C7.16451 15.1948 7.125 15.0995 7.125 15C7.125 14.9005 7.16451 14.8052 7.23483 14.7348C7.30516 14.6645 7.40054 14.625 7.5 14.625H16.5C16.5995 14.625 16.6948 14.6645 16.7652 14.7348C16.8355 14.8052 16.875 14.9005 16.875 15Z" fill="black"/>
</svg>
