<svg xmlns="http://www.w3.org/2000/svg" width="22" height="18" viewBox="0 0 22 18">
<path d="M21.1252 11.4999C21.1234 13.1901 20.4512 14.8106 19.256 16.0058C18.0609 17.201 16.4404 17.8732 14.7502 17.8749H6.50015C6.20179 17.8749 5.91564 17.7564 5.70466 17.5454C5.49368 17.3344 5.37515 17.0483 5.37515 16.7499C5.37515 16.4515 5.49368 16.1654 5.70466 15.9544C5.91564 15.7434 6.20179 15.6249 6.50015 15.6249H14.7502C15.8442 15.6249 16.8934 15.1903 17.667 14.4167C18.4406 13.6431 18.8752 12.5939 18.8752 11.4999C18.8752 10.4059 18.4406 9.35669 17.667 8.5831C16.8934 7.80951 15.8442 7.37492 14.7502 7.37492H4.7189L7.2989 9.95398C7.51025 10.1653 7.62898 10.452 7.62898 10.7509C7.62898 11.0497 7.51025 11.3364 7.2989 11.5477C7.08756 11.7591 6.80092 11.8778 6.50203 11.8778C6.20314 11.8778 5.9165 11.7591 5.70515 11.5477L1.20515 7.04773C1.10027 6.94321 1.01706 6.81902 0.960277 6.68227C0.903496 6.54553 0.874268 6.39892 0.874268 6.25085C0.874268 6.10279 0.903496 5.95618 0.960277 5.81943C1.01706 5.68269 1.10027 5.55849 1.20515 5.45398L5.70515 0.953978C5.9165 0.742633 6.20314 0.623901 6.50203 0.623901C6.80092 0.623901 7.08756 0.742633 7.2989 0.953978C7.51025 1.16532 7.62898 1.45197 7.62898 1.75085C7.62898 2.04974 7.51025 2.33638 7.2989 2.54773L4.7189 5.12492H14.7502C16.4403 5.1269 18.0607 5.79919 19.2558 6.9943C20.4509 8.18942 21.1232 9.80977 21.1252 11.4999Z" fill="#0d0c0c"/>
</svg>